   <svg width="33" height="32" viewBox="0 0 33 32" fill="none" xmlns="http://www.w3.org/2000/svg">
            <path d="M16.3999 2.89157C20.6409 2.89157 21.2192 2.89157 22.9541 2.89157C24.4963 2.89157 25.2674 3.27711 25.8457 3.46988C26.6168 3.85542 27.1951 4.04819 27.7734 4.62651C28.3517 5.20482 28.7373 5.78313 28.93 6.55422C29.1228 7.13253 29.3156 7.90362 29.5083 9.44579C29.5083 11.1807 29.5083 11.5663 29.5083 16C29.5083 20.4337 29.5083 20.8193 29.5083 22.5542C29.5083 24.0964 29.1228 24.8675 28.93 25.4458C28.5445 26.2169 28.3517 26.7952 27.7734 27.3735C27.1951 27.9518 26.6168 28.3374 25.8457 28.5301C25.2674 28.7229 24.4963 28.9157 22.9541 29.1084C21.2192 29.1084 20.8336 29.1084 16.3999 29.1084C11.9662 29.1084 11.5806 29.1084 9.84569 29.1084C8.30352 29.1084 7.53243 28.7229 6.95412 28.5301C6.18304 28.1446 5.60472 27.9518 5.02641 27.3735C4.4481 26.7952 4.06255 26.2169 3.86978 25.4458C3.67701 24.8675 3.48424 24.0964 3.29147 22.5542C3.29147 20.8193 3.29147 20.4337 3.29147 16C3.29147 11.5663 3.29147 11.1807 3.29147 9.44579C3.29147 7.90362 3.67701 7.13253 3.86978 6.55422C4.25532 5.78313 4.4481 5.20482 5.02641 4.62651C5.60472 4.04819 6.18304 3.66265 6.95412 3.46988C7.53243 3.27711 8.30352 3.08434 9.84569 2.89157C11.5806 2.89157 12.1589 2.89157 16.3999 2.89157ZM16.3999 0C11.9662 0 11.5806 0 9.84569 0C8.11075 0 6.95412 0.385543 5.99027 0.771086C5.02641 1.15663 4.06255 1.73494 3.0987 2.6988C2.13484 3.66265 1.7493 4.43374 1.17099 5.59036C0.785446 6.55422 0.592673 7.71084 0.399902 9.44579C0.399902 11.1807 0.399902 11.759 0.399902 16C0.399902 20.4337 0.399902 20.8193 0.399902 22.5542C0.399902 24.2892 0.785446 25.4458 1.17099 26.4096C1.55653 27.3735 2.13484 28.3374 3.0987 29.3012C4.06255 30.2651 4.83364 30.6506 5.99027 31.2289C6.95412 31.6145 8.11075 31.8072 9.84569 32C11.5806 32 12.1589 32 16.3999 32C20.6409 32 21.2192 32 22.9541 32C24.6891 32 25.8457 31.6145 26.8095 31.2289C27.7734 30.8434 28.7373 30.2651 29.7011 29.3012C30.665 28.3374 31.0505 27.5663 31.6288 26.4096C32.0144 25.4458 32.2071 24.2892 32.3999 22.5542C32.3999 20.8193 32.3999 20.241 32.3999 16C32.3999 11.759 32.3999 11.1807 32.3999 9.44579C32.3999 7.71084 32.0144 6.55422 31.6288 5.59036C31.2433 4.62651 30.665 3.66265 29.7011 2.6988C28.7373 1.73494 27.9662 1.3494 26.8095 0.771086C25.8457 0.385543 24.6891 0.192771 22.9541 0C21.2192 0 20.8336 0 16.3999 0Z" fill="white" />
            <path d="M16.3999 7.71084C11.7734 7.71084 8.11075 11.3735 8.11075 16C8.11075 20.6265 11.7734 24.2892 16.3999 24.2892C21.0264 24.2892 24.6891 20.6265 24.6891 16C24.6891 11.3735 21.0264 7.71084 16.3999 7.71084ZM16.3999 21.3976C13.5083 21.3976 11.0023 19.0843 11.0023 16C11.0023 13.1084 13.3156 10.6024 16.3999 10.6024C19.2915 10.6024 21.7975 12.9157 21.7975 16C21.7975 18.8916 19.2915 21.3976 16.3999 21.3976Z" fill="white" />
            <path d="M24.8818 9.44579C25.9465 9.44579 26.8095 8.58272 26.8095 7.51807C26.8095 6.45343 25.9465 5.59036 24.8818 5.59036C23.8172 5.59036 22.9541 6.45343 22.9541 7.51807C22.9541 8.58272 23.8172 9.44579 24.8818 9.44579Z" fill="white" />
        </svg>