<svg width="94" height="71" viewBox="0 0 94 71" fill="none" xmlns="http://www.w3.org/2000/svg">
<g clip-path="url(#clip0_459_4335)">
<path d="M16.8209 21.8626C16.8209 21.8626 18.1501 21.7251 19.0667 21.7251C20.9917 21.7251 22.8251 22.3667 23.9709 23.3751L22.8251 24.7501C21.7709 23.6042 18.5626 22.0459 16.8209 21.8626ZM23.3751 28.1876C23.9709 28.1876 24.5667 28.3709 25.1167 28.7376L27.0876 29.9751L28.9209 29.4251L31.5792 26.2167L25.8959 20.5334C23.6501 18.2876 20.4417 17.0501 16.9584 17.0501C16.9126 17.0501 16.9126 17.0501 16.8667 17.0501C15.2167 15.8584 12.8792 15.1709 10.4501 15.1709C8.84589 15.1709 7.42507 15.5376 7.42507 15.5376C7.83757 16.7292 8.7084 18.1501 9.3959 19.1584C3.85006 22.3667 0.0458984 28.8751 0.0458984 36.4376C0.0458984 37.9501 0.183393 38.7292 0.183393 38.7292C0.183393 38.7292 2.01673 36.8959 4.40006 36.8959C4.40006 40.6084 2.06256 44.1834 2.06256 44.1834C8.0209 44.1834 18.7459 46.9792 22.5501 49.5917C22.5501 47.8042 18.7459 43.4042 15.0792 40.9751C15.0792 40.9751 25.8501 45.6501 27.4542 53.8084C27.4542 53.8084 28.2792 52.1126 28.2792 49.3167C28.2792 36.9876 12.3292 37.3084 12.2376 27.0417C12.1917 24.2917 13.3376 22.5959 13.3376 22.5959C13.3376 22.5959 12.9709 24.1084 12.9709 25.8042C12.9709 33.7334 21.2667 34.0542 26.4917 39.0501L27.5917 33.0001L25.4376 33.6876L23.8792 33.2292C22.1376 32.7251 21.1292 31.7167 21.1292 30.4334C20.9917 29.1501 22.0001 28.1876 23.3751 28.1876Z" fill="black"/>
<path d="M49.8667 38.3624L48.3084 35.9791C50.4626 35.0624 51.7917 33.1374 51.7917 30.8457C51.7917 27.8207 49.5001 25.7124 46.1542 25.7124H42.9001H41.8001H38.5459L38.8209 26.1249C39.3709 27.0416 39.6459 27.8666 39.6459 28.6457V39.6457C39.6459 40.4249 39.3709 41.2499 38.8209 42.1666L38.5459 42.5791H42.9001V28.8291H45.9709C47.4834 28.8291 48.4917 29.7457 48.4917 31.0749C48.4917 32.6332 47.3001 33.6416 43.9084 34.5582L47.6209 40.7916C48.5376 42.3499 49.9584 43.2207 51.6084 43.2207C53.1209 43.2207 53.7626 42.5332 53.7626 42.5332C53.7626 42.5332 52.2042 41.9832 49.8667 38.3624Z" fill="black"/>
<path d="M77.1372 42.625L76.8622 42.3041C76.3122 41.5708 76.0372 40.8833 75.9913 40.2416L74.7538 28.6916C74.6622 27.9125 74.9372 27.0875 75.4413 26.1708L75.6705 25.7583H70.858L66.6413 35.3375L62.4247 25.7583H57.6122L57.8413 26.1708C58.3455 27.0875 58.5747 27.9125 58.5288 28.6916L57.2913 40.2416C57.2455 40.8833 56.9705 41.5708 56.4205 42.3041L56.1455 42.625H60.5913L61.5997 31.6708L66.6872 43.2666L71.7747 31.6708L72.783 42.625H77.1372Z" fill="black"/>
<path d="M87.2666 39.7374H83.0041V35.0624H87.2666C88.9166 35.0624 90.0166 35.9791 90.0166 37.3999C90.0166 38.8207 88.9166 39.7374 87.2666 39.7374ZM86.2583 29.1957C87.7708 29.1957 88.8249 29.9291 88.8249 30.9374C88.8249 31.9916 87.7708 32.6791 86.2583 32.6791H82.9583V29.1957H86.2583ZM90.5208 33.9166C91.8041 33.1832 92.4916 31.9916 92.4916 30.4332C92.4916 27.5916 90.1999 25.7124 86.8083 25.7124H78.3291L78.6041 26.1707C79.1999 27.0874 79.5208 28.0041 79.5208 28.7832V40.1957C79.5208 41.0207 79.1999 41.8916 78.6041 42.8082L78.3291 43.2666H87.5416C91.0249 43.2666 93.5458 41.1124 93.5458 38.0874C93.4999 36.0707 92.4458 34.6499 90.5208 33.9166Z" fill="black"/>
</g>
<defs>
<clipPath id="clip0_459_4335">
<rect width="93.5" height="70.125" fill="white"/>
</clipPath>
</defs>
</svg>
