   <svg width="39" height="32" viewBox="0 0 39 32" fill="none" xmlns="http://www.w3.org/2000/svg">
            <path d="M2.6398 13.7759C12.9477 9.26002 19.8212 6.28285 23.2604 4.84444C33.08 0.737462 35.1205 0.0240373 36.4504 0.000228386C36.7429 -0.00470169 37.3969 0.0681912 37.8206 0.413857C38.1783 0.705731 38.2767 1.10001 38.3238 1.37674C38.3709 1.65347 38.4296 2.28386 38.3829 2.77643C37.8508 8.39857 35.5483 22.042 34.3769 28.3389C33.8813 31.0033 32.9053 31.8967 31.9604 31.9841C29.9071 32.1741 28.3478 30.6196 26.359 29.3087C23.247 27.2574 21.4889 25.9804 18.4681 23.9787C14.977 21.6654 17.2401 20.394 19.2297 18.3161C19.7503 17.7723 28.7975 9.49751 28.9726 8.74686C28.9945 8.65298 29.0149 8.30303 28.8081 8.11824C28.6014 7.93346 28.2962 7.99665 28.076 8.04691C27.7639 8.11814 22.7923 11.4224 13.1613 17.9597C11.7502 18.934 10.472 19.4088 9.32678 19.3839C8.06428 19.3565 5.63573 18.6661 3.83035 18.076C1.61599 17.3522 -0.143948 16.9695 0.00930276 15.7403C0.0891252 15.1 0.965958 14.4452 2.6398 13.7759Z" fill="white" />
        </svg>