    <svg width="44" height="32" viewBox="0 0 44 32" fill="none" xmlns="http://www.w3.org/2000/svg">
            <path d="M41.9999 4.85714C41.4666 2.85714 40.1333 1.42857 38.2666 0.857143C35.0666 5.10897e-07 21.4666 0 21.4666 0C21.4666 0 8.13325 5.10897e-07 4.66658 0.857143C2.79992 1.42857 1.46656 2.85714 0.933227 4.85714C0.399894 8.57143 0.399902 16 0.399902 16C0.399902 16 0.39991 23.4286 1.19991 27.1429C1.73324 29.1429 3.06656 30.5714 4.93323 31.1429C8.13323 32 21.7332 32 21.7332 32C21.7332 32 35.0665 32 38.5332 31.1429C40.3999 30.5714 41.7333 29.1429 42.2666 27.1429C43.0666 23.4286 43.0666 16 43.0666 16C43.0666 16 43.0666 8.57143 41.9999 4.85714ZM17.4666 22.8571V9.14286L28.6666 16L17.4666 22.8571Z" fill="white" />
        </svg>