<svg width="402" height="403" viewBox="0 0 402 403" fill="none" xmlns="http://www.w3.org/2000/svg">
<g filter="url(#filter0_d_732_1944)">
<g clip-path="url(#clip0_732_1944)">
<rect x="60.3333" y="30" width="281" height="283" rx="140.5" fill="#FFF8F1"/>
<g style="mix-blend-mode:hard-light" opacity="0.3">
<path d="M204.333 307.273C177.248 257.212 105.659 180.521 35.9792 274.248C-33.7006 367.976 -105.485 313.301 -132.667 274.248" stroke="#007639" stroke-opacity="0.3" stroke-width="12" stroke-linecap="round"/>
</g>
<g style="mix-blend-mode:hard-light" opacity="0.3">
<path d="M24.3333 77.2731C49.8106 27.2118 117.151 -49.4788 182.696 44.2484C248.24 137.976 315.764 83.3014 341.333 44.2484" stroke="#007639" stroke-opacity="0.3" stroke-width="12" stroke-linecap="round"/>
</g>
<g style="mix-blend-mode:hard-light" opacity="0.3">
<path d="M-3.66675 201.273C23.4983 151.212 95.3001 74.5212 165.187 168.248C235.073 261.976 307.07 207.301 334.333 168.248" stroke="#007639" stroke-opacity="0.3" stroke-width="12" stroke-linecap="round"/>
</g>
<path d="M124.173 176L119.725 164.672H122.045L125.133 173.232L128.317 164.672H130.493L125.917 176H124.173ZM129.01 176L133.938 164.672H135.682L140.562 176H138.258L137.202 173.408H132.29L131.266 176H129.01ZM132.978 171.68H136.498L134.754 167.072L132.978 171.68ZM150.605 166.176L149.037 167.328C148.205 166.448 147.437 166.208 146.653 166.208C144.317 166.208 142.765 168 142.765 170.256C142.765 172.672 144.317 174.464 146.653 174.464C147.565 174.464 148.445 174.048 149.197 173.088L150.861 174.272C149.837 175.68 148.301 176.288 146.637 176.288C143.149 176.288 140.653 173.92 140.653 170.384C140.653 166.752 143.149 164.384 146.637 164.384C148.173 164.384 149.485 164.88 150.605 166.176ZM160.998 166.176L159.43 167.328C158.598 166.448 157.83 166.208 157.046 166.208C154.71 166.208 153.158 168 153.158 170.256C153.158 172.672 154.71 174.464 157.046 174.464C157.958 174.464 158.838 174.048 159.59 173.088L161.254 174.272C160.23 175.68 158.694 176.288 157.03 176.288C153.542 176.288 151.046 173.92 151.046 170.384C151.046 166.752 153.542 164.384 157.03 164.384C158.566 164.384 159.878 164.88 160.998 166.176ZM168.541 176V166.496H165.069V164.672H174.029V166.496H170.557V176H168.541ZM174.849 176V164.672H182.353V166.496H176.865V169.28H182.065V171.104H176.865V174.176H182.641V176H174.849ZM193.414 166.176L191.846 167.328C191.014 166.448 190.246 166.208 189.462 166.208C187.126 166.208 185.574 168 185.574 170.256C185.574 172.672 187.126 174.464 189.462 174.464C190.374 174.464 191.254 174.048 192.006 173.088L193.67 174.272C192.646 175.68 191.11 176.288 189.446 176.288C185.958 176.288 183.462 173.92 183.462 170.384C183.462 166.752 185.958 164.384 189.446 164.384C190.982 164.384 192.294 164.88 193.414 166.176ZM194.463 176V164.672H196.479V169.184H201.775V164.672H203.791V176H201.775V171.008H196.479V176H194.463ZM205.763 176V164.672H208.435L213.923 173.088H213.955V164.672H215.971V176H213.411L207.811 167.312H207.779V176H205.763ZM217.889 176V164.672H219.905V176H217.889ZM231.174 166.176L229.606 167.328C228.774 166.448 228.006 166.208 227.222 166.208C224.886 166.208 223.334 168 223.334 170.256C223.334 172.672 224.886 174.464 227.222 174.464C228.134 174.464 229.014 174.048 229.766 173.088L231.43 174.272C230.406 175.68 228.87 176.288 227.206 176.288C223.718 176.288 221.222 173.92 221.222 170.384C221.222 166.752 223.718 164.384 227.206 164.384C228.742 164.384 230.054 164.88 231.174 166.176ZM230.959 176L235.887 164.672H237.631L242.511 176H240.207L239.151 173.408H234.239L233.215 176H230.959ZM234.927 171.68H238.447L236.703 167.072L234.927 171.68ZM243.21 176V164.672H245.226V174.176H250.042V176H243.21ZM255.121 176V164.672H257.137V174.176H261.953V176H255.121ZM263.709 176V166.496H260.237V164.672H269.197V166.496H265.725V176H263.709ZM270.017 176V164.672H274.481C277.457 164.672 280.241 166.496 280.241 170.336C280.241 174.208 276.961 176 274.241 176H270.017ZM272.033 174.176H273.537C276.065 174.176 278.129 173.088 278.129 170.336C278.129 167.584 276.337 166.496 273.873 166.496H272.033V174.176Z" fill="#1C1C20"/>
</g>
</g>
<defs>
<filter id="filter0_d_732_1944" x="0.333252" y="0" width="401" height="403" filterUnits="userSpaceOnUse" color-interpolation-filters="sRGB">
<feFlood flood-opacity="0" result="BackgroundImageFix"/>
<feColorMatrix in="SourceAlpha" type="matrix" values="0 0 0 0 0 0 0 0 0 0 0 0 0 0 0 0 0 0 127 0" result="hardAlpha"/>
<feOffset dy="30"/>
<feGaussianBlur stdDeviation="30"/>
<feComposite in2="hardAlpha" operator="out"/>
<feColorMatrix type="matrix" values="0 0 0 0 0.360784 0 0 0 0 0.388235 0 0 0 0 0.411765 0 0 0 0.15 0"/>
<feBlend mode="normal" in2="BackgroundImageFix" result="effect1_dropShadow_732_1944"/>
<feBlend mode="normal" in="SourceGraphic" in2="effect1_dropShadow_732_1944" result="shape"/>
</filter>
<clipPath id="clip0_732_1944">
<rect x="60.3333" y="30" width="281" height="283" rx="140.5" fill="white"/>
</clipPath>
</defs>
</svg>
